<svg width="57" height="43" viewBox="0 0 57 43" fill="none" xmlns="http://www.w3.org/2000/svg">
<path fill-rule="evenodd" clip-rule="evenodd" d="M1.38196 0.158676C1.20649 0.77053 0.5 3.79729 0.5 3.94506C0.5 4.03972 0.583113 4.11821 0.684703 4.11821C0.786292 4.11821 2.22929 4.42528 3.88931 4.80159C5.54933 5.17792 7.07312 5.51729 7.27632 5.55884C7.72654 5.65119 7.6134 5.32104 9.85064 13.1804C10.1762 14.3233 10.5663 15.6739 10.7164 16.1818C10.8665 16.6897 11.2336 17.9896 11.5291 19.0678C11.8246 20.1483 12.2656 21.7067 12.508 22.531C12.7527 23.3575 13.2145 25.0198 13.5354 26.225C13.8586 27.4326 14.2281 28.7901 14.3573 29.2427C14.4889 29.6952 14.6921 30.4732 14.8122 30.9743C15.1492 32.3757 15.4817 33.0014 16.052 33.3084C16.2344 33.4054 19.4713 33.44 28.1987 33.44H40.0959V29.2842H18.8689L18.5665 28.2753C18.4026 27.7189 18.1902 27.0332 18.0978 26.7538C18.0078 26.4722 17.9316 26.1997 17.9316 26.1467C17.9316 26.0959 23.9 26.052 31.1953 26.052H44.459L44.6553 25.1585C45.4172 21.6815 47.1603 14.178 47.7883 11.6796C48.3794 9.33156 48.5317 8.54659 48.4948 8.07097C48.4371 7.35758 48.1231 6.94893 47.4928 6.77344C47.2273 6.69956 40.8435 6.65801 29.6851 6.65801H12.2905L12.115 6.05313C12.0181 5.71835 11.8056 4.95182 11.6394 4.34925C11.4755 3.74668 11.2515 3.0217 11.1407 2.7377C10.9514 2.24361 10.9168 2.21822 10.2518 2.06354C9.8732 1.97581 8.70495 1.70107 7.65678 1.45169C6.60861 1.20232 5.41493 0.920669 5.00167 0.823701C3.74338 0.530487 1.83861 0.071059 1.63547 0.0110084C1.51541 -0.0259322 1.4189 0.0316926 1.38196 0.158676ZM32.4191 10.2757C32.2298 10.3611 32.0082 10.5573 31.9274 10.7097C31.8466 10.8621 31.0016 13.3417 30.0526 16.2208C28.2402 21.7041 28.2379 21.7203 28.7782 22.0089C28.8983 22.0736 29.2053 22.1267 29.4593 22.1267C30.1403 22.1267 30.5537 21.7249 30.8584 20.7668C30.9923 20.3397 31.775 17.957 32.5992 15.4682C33.4211 12.9816 34.093 10.8667 34.093 10.7675C34.093 10.3242 33.0148 10.0055 32.4191 10.2757ZM26.2179 10.4627C26.0331 10.6081 25.86 10.9406 25.733 11.3885C25.6268 11.7741 25.2874 12.8523 24.9804 13.7873C24.6733 14.7247 23.9991 16.7726 23.4843 18.3449C22.9694 19.9148 22.5493 21.3001 22.5493 21.4247C22.5493 21.8034 23.0872 22.1266 23.7198 22.1266C24.4656 22.1266 24.6387 21.9327 25.0289 20.6698C25.2044 20.1065 25.6707 18.6589 26.0678 17.4514C28.3189 10.6106 28.2958 10.6892 28.0303 10.4232C27.7486 10.1438 26.5919 10.1672 26.2179 10.4627ZM37.9348 10.4119C37.7455 10.5435 37.2837 11.8156 35.9469 15.8768C34.9911 18.7882 34.2084 21.247 34.2084 21.344C34.2084 21.441 34.3169 21.6557 34.4485 21.8219C34.6471 22.0759 34.7787 22.1267 35.2428 22.1267C35.6007 22.1267 35.8869 22.0551 36.0463 21.9258C36.224 21.778 36.7828 20.2519 38.078 16.3616C39.0616 13.411 39.865 10.8806 39.865 10.7374C39.865 10.592 39.7657 10.4211 39.641 10.3565C39.3039 10.1741 38.2234 10.2087 37.9348 10.4119ZM19.7482 34.9499C18.8132 35.1715 17.8804 35.8133 17.4094 36.5614C15.701 39.2673 17.9358 42.576 21.1335 42.0748C21.937 41.9478 22.5927 41.583 23.1768 40.9343C25.0584 38.8541 24.0172 35.6379 21.2559 35.0031C20.3993 34.8068 20.367 34.8044 19.7482 34.9499ZM35.2243 35.0861C34.6101 35.2916 33.8136 35.8896 33.4026 36.4575C32.336 37.9282 32.5853 39.9576 33.9868 41.2182C34.7533 41.9086 35.4713 42.1418 36.6234 42.0748C38.0687 41.9917 39.006 41.3475 39.6941 39.9692C40.1027 39.1542 40.0981 37.9097 39.6825 37.0185C39.0684 35.6933 38.071 35.0399 36.5749 34.9799C36.0508 34.9614 35.4667 35.0053 35.2243 35.0861Z" fill="#333333"/>
</svg>
